<?xml version="1.0" encoding="UTF-8" standalone="no"?>
<!-- Created with Inkscape (http://www.inkscape.org/) -->

<svg
   xmlns:dc="http://purl.org/dc/elements/1.1/"
   xmlns:cc="http://creativecommons.org/ns#"
   xmlns:rdf="http://www.w3.org/1999/02/22-rdf-syntax-ns#"
   xmlns:svg="http://www.w3.org/2000/svg"
   xmlns="http://www.w3.org/2000/svg"
   xmlns:sodipodi="http://sodipodi.sourceforge.net/DTD/sodipodi-0.dtd"
   xmlns:inkscape="http://www.inkscape.org/namespaces/inkscape"
   width="210mm"
   height="297mm"
   viewBox="0 0 210 297"
   version="1.1"
   id="svg8"
   inkscape:version="0.92.3 (2405546, 2018-03-11)"
   sodipodi:docname="main.svg">
  <defs
     id="defs2" />
  <sodipodi:namedview
     id="base"
     pagecolor="#ffffff"
     bordercolor="#666666"
     borderopacity="1.0"
     inkscape:pageopacity="0.0"
     inkscape:pageshadow="2"
     inkscape:zoom="0.175"
     inkscape:cx="974.02802"
     inkscape:cy="885.23211"
     inkscape:document-units="mm"
     inkscape:current-layer="layer1"
     showgrid="false"
     inkscape:window-width="1920"
     inkscape:window-height="1017"
     inkscape:window-x="-8"
     inkscape:window-y="-8"
     inkscape:window-maximized="1" />
  <metadata
     id="metadata5">
    <rdf:RDF>
      <cc:Work
         rdf:about="">
        <dc:format>image/svg+xml</dc:format>
        <dc:type
           rdf:resource="http://purl.org/dc/dcmitype/StillImage" />
        <dc:title></dc:title>
      </cc:Work>
    </rdf:RDF>
  </metadata>
  <g
     inkscape:label="Layer 1"
     inkscape:groupmode="layer"
     id="layer1">
    <g
       id="g864"
       inkscape:export-xdpi="25.4"
       inkscape:export-ydpi="25.4">
      <rect
         y="-131.18452"
         x="-237.36903"
         height="500"
         width="1024"
         id="rect839"
         style="opacity:1;fill:#ffffff;fill-opacity:1;fill-rule:nonzero;stroke:none;stroke-width:29.52882576;stroke-miterlimit:4;stroke-dasharray:none;stroke-opacity:1" />
      <g
         transform="matrix(2.8142839,0,0,2.8142839,48.392144,-436.74578)"
         id="g837">
        <g
           transform="translate(79.509357,30.43149)"
           id="g847">
          <path
             inkscape:connector-curvature="0"
             id="rect817"
             d="m -121.05931,149.8408 v 2.99982 h 99.999576 v -2.99982 z m 0,31.27044 v 3.00034 h 99.999576 v -3.00034 z"
             style="opacity:1;fill:#000000;fill-opacity:1;fill-rule:nonzero;stroke:none;stroke-width:2.56165838;stroke-miterlimit:4;stroke-dasharray:none;stroke-opacity:1" />
          <path
             inkscape:connector-curvature="0"
             id="rect821"
             d="m -88.194654,116.97614 v 100.0001 h 2.999817 v -100.0001 z m 31.270443,0 v 100.0001 h 2.999817 v -100.0001 z"
             style="opacity:1;fill:#000000;fill-opacity:1;fill-rule:nonzero;stroke:none;stroke-width:2.56165838;stroke-miterlimit:4;stroke-dasharray:none;stroke-opacity:1" />
          <path
             inkscape:connector-curvature="0"
             id="path828"
             d="m -71.503525,157.68744 a 10.000054,10.000055 0 0 0 -9.99985,10.00015 10.000054,10.000055 0 0 0 9.99985,9.99985 10.000054,10.000055 0 0 0 10.000152,-9.99985 10.000054,10.000055 0 0 0 -10.000152,-10.00015 z m 0,2.81235 a 7.1875388,7.1875393 0 0 1 7.187504,7.1878 7.1875388,7.1875393 0 0 1 -7.187504,7.1875 7.1875388,7.1875393 0 0 1 -7.187499,-7.1875 7.1875388,7.1875393 0 0 1 7.187499,-7.1878 z"
             style="opacity:1;fill:#ff0000;fill-opacity:1;fill-rule:nonzero;stroke:none;stroke-width:5.84619093;stroke-miterlimit:4;stroke-dasharray:none;stroke-opacity:1" />
          <path
             inkscape:connector-curvature="0"
             id="rect833"
             d="m -96.156944,123.60869 -7.647196,7.64721 -7.6472,-7.64721 -2.3528,2.3528 7.6472,7.6472 -7.6472,7.6472 2.3528,2.3528 7.6472,-7.6472 7.647197,7.6472 2.352797,-2.3528 -7.647204,-7.6472 7.647204,-7.6472 z"
             style="opacity:1;fill:#0000ff;fill-opacity:1;fill-rule:nonzero;stroke:none;stroke-width:4.34992504;stroke-miterlimit:4;stroke-dasharray:none;stroke-opacity:1" />
          <path
             style="opacity:1;fill:#ff0000;fill-opacity:1;fill-rule:nonzero;stroke:none;stroke-width:5.84619093;stroke-miterlimit:4;stroke-dasharray:none;stroke-opacity:1"
             d="m -104.91222,191.3634 a 10.000054,10.000055 0 0 0 -9.99985,10.00015 10.000054,10.000055 0 0 0 9.99985,9.99985 10.000054,10.000055 0 0 0 10.000154,-9.99985 10.000054,10.000055 0 0 0 -10.000154,-10.00015 z m 0,2.81235 a 7.1875388,7.1875393 0 0 1 7.187508,7.1878 7.1875388,7.1875393 0 0 1 -7.187508,7.1875 7.1875388,7.1875393 0 0 1 -7.1875,-7.1875 7.1875388,7.1875393 0 0 1 7.1875,-7.1878 z"
             id="path838"
             inkscape:connector-curvature="0" />
          <path
             style="opacity:1;fill:#0000ff;fill-opacity:1;fill-rule:nonzero;stroke:none;stroke-width:4.34992504;stroke-miterlimit:4;stroke-dasharray:none;stroke-opacity:1"
             d="m -30.675909,124.4105 -7.647199,7.64721 -7.647199,-7.64721 -2.352794,2.3528 7.647191,7.6472 -7.647199,7.6472 2.352802,2.3528 7.647199,-7.6472 7.647199,7.6472 2.352799,-2.3528 -7.647204,-7.6472 7.647202,-7.6472 z"
             id="path840"
             inkscape:connector-curvature="0" />
        </g>
        <text
           id="text851"
           y="203.89566"
           x="84.198792"
           style="font-style:normal;font-variant:normal;font-weight:bold;font-stretch:normal;font-size:18.05077171px;line-height:1.25;font-family:Arial;-inkscape-font-specification:'Arial Bold';letter-spacing:0px;word-spacing:0px;fill:#000000;fill-opacity:1;stroke:none;stroke-width:0.09401444"
           xml:space="preserve"><tspan
             style="font-style:normal;font-variant:normal;font-weight:bold;font-stretch:normal;font-size:25.07051849px;font-family:Arial;-inkscape-font-specification:'Arial Bold';stroke-width:0.09401444"
             y="203.89566"
             x="84.198792"
             id="tspan849"
             sodipodi:role="line">Piškvorky</tspan></text>
      </g>
    </g>
  </g>
</svg>
